<?xml version="1.0" encoding="UTF-8" standalone="no"?>
<svg
   width="679"
   height="679.00006"
   viewBox="0 0 679 679.00006"
   version="1.1"
   xml:space="preserve"
   id="SVGRoot"
   sodipodi:docname="LogoColor.svg"
   inkscape:version="1.3 (0e150ed6c4, 2023-07-21)"
   inkscape:export-filename="Logo.svg"
   inkscape:export-xdpi="96"
   inkscape:export-ydpi="96"
   xmlns:inkscape="http://www.inkscape.org/namespaces/inkscape"
   xmlns:sodipodi="http://sodipodi.sourceforge.net/DTD/sodipodi-0.dtd"
   xmlns="http://www.w3.org/2000/svg"
   xmlns:svg="http://www.w3.org/2000/svg"><sodipodi:namedview
   id="namedview1"
   pagecolor="#ffffff"
   bordercolor="#000000"
   borderopacity="0.25"
   inkscape:showpageshadow="2"
   inkscape:pageopacity="0.0"
   inkscape:pagecheckerboard="0"
   inkscape:deskcolor="#d1d1d1"
   inkscape:zoom="1.6745212"
   inkscape:cx="339.20144"
   inkscape:cy="339.50003"
   inkscape:window-width="2560"
   inkscape:window-height="1351"
   inkscape:window-x="-9"
   inkscape:window-y="-9"
   inkscape:window-maximized="1"
   inkscape:current-layer="SVGRoot" /><defs
   id="defs2" />&#10;&#10;<style
   type="text/css"
   id="style1">&#10;g.prefab path {&#10;  vector-effect:non-scaling-stroke;&#10;  -inkscape-stroke:hairline;&#10;  fill: none;&#10;  fill-opacity: 1;&#10;  stroke-opacity: 1;&#10;  stroke: #00349c;&#10;}&#10;</style>&#10;&#10;<g
   id="g31"
   style="display:inline;stroke:#000000;stroke-width:30;stroke-dasharray:none;stroke-opacity:1"
   transform="translate(-110.5,-110.5)"><ellipse
     style="display:inline;opacity:1;fill:none;fill-opacity:1;stroke:#000000;stroke-width:30;stroke-dasharray:none;stroke-opacity:1"
     id="ellipse1"
     cx="450"
     cy="450.00003"
     rx="324.5"
     ry="324.50003" /><path
     id="path7"
     style="display:inline;opacity:1;vector-effect:non-scaling-stroke;fill:#000000;fill-opacity:1;stroke:#000000;stroke-width:1;stroke-dasharray:none;stroke-opacity:1;-inkscape-stroke:hairline"
     d="m 594.92288,167.02259 c 0.2011,7.82442 -0.8484,17.0803 -0.13844,28.72754 0.77011,12.63399 0.93906,25.46813 0.93087,34.08357 -0.008,8.88116 -1.03867,17.28333 -2.50855,26.0548 -3.97722,23.73382 -14.10153,46.01893 -21.51688,65.41222 -4.41274,11.54059 -11.18398,26.63371 -11.18398,26.63371 0,0 -0.38726,-0.3235 -9.51262,-12.34589 -9.12536,-12.02239 -4.43244,-20.0098 -2.13222,-24.87857 3.78095,-8.00294 11.38636,-26.53973 13.12303,-39.41024 1.73665,-12.8705 1.0485,-21.84739 -0.46008,-25.12832 -4.53925,1.14436 -23.57348,20.57946 -35.27515,35.27734 -11.70167,14.69788 -14.26995,33.41796 -14.26995,33.41796 0,0 -14.68525,-3.41537 -23.28242,-10.15625 -8.97621,-7.03808 -13.45198,-11.50902 -15.59236,-22.1865 -1.86463,-9.30186 4.17326,-18.19255 8.97218,-23.95802 35.10027,-42.16987 56.31954,-56.27026 112.84658,-91.54336" /><path
     id="path8"
     style="display:inline;vector-effect:non-scaling-stroke;fill:#000000;fill-opacity:1;stroke:#000000;stroke-width:1;stroke-opacity:1;-inkscape-stroke:hairline"
     d="m 451.69758,172.94789 c 17.82676,40.83723 21.50568,86.45809 10.48677,129.62418 0,0 -1.60928,5.14714 -5.26607,11.87096 -3.65678,6.72383 -4.5293,8.12589 -8.25412,12.33701 -3.72483,4.21111 -10.77571,8.37197 -17.61145,8.47322 -6.83574,0.10125 -12.96588,-5.39928 -13.62949,-10.74301 -1.01873,-8.20325 6.71582,-14.01913 7.58976,-26.97684 0.87393,-12.9577 -0.79542,-27.60585 -2.51958,-30.77879 -4.45277,1.44471 -19.44938,16.61841 -35.42216,40.56728 -15.97278,23.94887 -21.3926,43.54771 -22.72331,47.77824 -1.3307,4.23052 -6.59791,28.69327 -34.16983,24.15448 -27.57192,-4.53879 -15.07266,-33.68194 -15.07266,-33.68194 28.76938,-70.65194 70.10613,-132.32522 136.59215,-172.6248" /><path
     id="path19"
     style="display:inline;vector-effect:non-scaling-stroke;fill:#000000;fill-opacity:1;stroke:#000000;stroke-width:1;stroke-dasharray:none;stroke-opacity:1;-inkscape-stroke:hairline"
     d="m 449.5,397.97266 a 75,75 0 0 0 -17.50195,2.25 125,125 0 0 0 88.78125,49.48828 A 75,75 0 0 0 449.5,397.97266 Z" /><path
     style="display:inline;opacity:1;fill:#000000;fill-opacity:1;stroke:#000000;stroke-width:1;stroke-dasharray:none;stroke-opacity:1"
     d="m 608.81892,718.59725 c 0,0 -19.31205,3.50464 -62.42014,-26.13774 -28.182,-19.37877 -33.5696,-60.30606 -33.5696,-60.30606 0,0 -28.06125,10.98416 -46.73246,55.32405 -17.66104,41.94095 -10.36641,75.13714 -10.36641,75.13714 0,0 46.6399,-3.10516 80.39176,-12.34239 35.73002,-9.77862 72.69685,-31.675 72.69685,-31.675 z"
     id="path20" /><path
     style="display:inline;opacity:1;vector-effect:non-scaling-stroke;fill:#000000;fill-opacity:1;stroke:#000000;stroke-width:1;stroke-linecap:round;stroke-dasharray:none;stroke-opacity:1;-inkscape-stroke:hairline"
     d="m 608.85957,491.71012 c 4.05917,0.23941 9.95484,3.03606 13.80912,5.63075 3.85427,2.59469 11.9497,8.92153 12.36722,15.0437 0.41752,6.12217 -3.09733,9.89198 -6.86216,14.55086 -3.76484,4.65887 -11.35718,10.8177 -14.6173,13.22359 -3.26011,2.40589 -6.43944,2.41321 -11.87439,5.42146 -5.43495,3.00825 -14.30186,-10.9326 -17.76055,-15.43536 -3.45869,-4.50276 -4.94502,-9.30714 -5.18963,-13.65872 -0.24461,-4.35159 0.82636,-12.46663 9.41174,-18.45832 8.58538,-5.99169 16.65678,-6.55737 20.71595,-6.31796 z"
     id="path27" /><path
     style="display:inline;fill:none;fill-opacity:1;stroke:#000000;stroke-width:20;stroke-linecap:round;stroke-dasharray:none;stroke-opacity:1"
     id="path28"
     d="M 146.36842,636.04608 A 325,325 0 0 1 310.04766,442.05291"
     transform="rotate(-3.4931785)" /><path
     style="opacity:1;vector-effect:non-scaling-stroke;fill:#000000;fill-opacity:1;stroke:#000000;stroke-width:1;stroke-linecap:round;stroke-dasharray:none;stroke-opacity:1;-inkscape-stroke:hairline"
     d="m 223.60619,575.62601 c -13.00385,7.91506 -18.19074,17.39217 -18.19074,17.39217 l -15.36404,27.85578 27.57884,34.55246 c 0,0 -11.96262,-15.59483 -8.22888,-27.92076 3.73373,-12.32594 5.74927,-18.96848 21.05481,-32.13294 15.30554,-13.16446 29.11165,-22.5956 72.12116,-36.49011 43.00951,-13.89451 73.35148,-18.15487 105.63307,-22.14143 32.28158,-3.98656 53.35641,-2.20385 75.60113,1.18198 22.24472,3.38582 46.11228,22.55195 63.31,23.35517 17.19772,0.80322 21.80601,-0.46004 28.47213,-2.37176 6.66612,-1.91172 9.46051,-0.89086 14.8091,-4.93325 4.47723,-3.38382 10.61827,-7.97173 10.61827,-7.97173 l -20.46016,-21.45831 c 0,0 2.46606,5.46647 3.0911,8.22863 0.62503,2.76217 0.20086,5.10339 -1.05644,6.53205 -1.63429,1.85703 -4.33625,3.58086 -8.77128,5.07468 -2.95836,0.99645 -8.39488,2.73132 -15.81005,2.21414 -7.41517,-0.51718 -16.84088,-2.54557 -21.49109,-4.26931 -4.65021,-1.72375 -8.55388,-2.45595 -21.21416,-7.95316 -7.41682,-3.22045 -19.72669,-7.73189 -33.44412,-10.53109 -10.36948,-2.116 -35.8506,-6.27858 -66.51647,-4.21967 -18.12654,1.21701 -32.96345,3.69376 -45.09681,5.91196 -28.10841,5.13873 -60.88099,13.33642 -85.29779,21.87274 -24.41681,8.53632 -48.34373,20.3067 -61.34758,28.22176 z"
     id="path29" /><path
     id="path30"
     style="display:inline;vector-effect:non-scaling-stroke;fill:#000000;fill-opacity:1;stroke:#000000;stroke-width:1;stroke-dasharray:none;stroke-opacity:1;-inkscape-stroke:hairline"
     d="m 572.03906,372.8457 a 50,50 0 0 0 -15.15429,35.6836 50,50 0 0 0 14.19335,34.72265 125,125 0 0 0 5.62305,-36.72265 125,125 0 0 0 -4.66211,-33.6836 z" /></g></svg>
